<?xml version="1.0" standalone="no"?>
<!DOCTYPE svg PUBLIC "-//W3C//DTD SVG 1.1//EN" "http://www.w3.org/Graphics/SVG/1.1/DTD/svg11.dtd" >
<svg xmlns="http://www.w3.org/2000/svg">
<metadata></metadata>
<defs>
<font id="dinmittelschriftregular" horiz-adv-x="1024" >
<font-face units-per-em="2048" ascent="1638" descent="-410" />
<missing-glyph horiz-adv-x="491" />
<glyph horiz-adv-x="2048" />
<glyph horiz-adv-x="2048" />
<glyph unicode="&#xd;" horiz-adv-x="2048" />
<glyph unicode=" "  horiz-adv-x="491" />
<glyph unicode="&#x09;" horiz-adv-x="491" />
<glyph unicode="&#xa0;" horiz-adv-x="491" />
<glyph unicode="!" horiz-adv-x="528" d="M133 1458h262l-80 -1098h-104zM160 0v209h209v-209h-209z" />
<glyph unicode="&#x22;" horiz-adv-x="681" d="M127 1098v360h160v-360h-160zM395 1098v360h160v-360h-160z" />
<glyph unicode="#" horiz-adv-x="983" d="M6 446v136h203l45 295h-188v135h202l64 446h160l-64 -446h201l63 446h160l-64 -446h189v-135h-203l-45 -295h189v-136h-203l-64 -446h-159l63 446h-201l-63 -446h-160l64 446h-189zM369 582h200l45 295h-200z" />
<glyph unicode="$" horiz-adv-x="983" d="M16 182l144 152q53 -59 117.5 -99t160.5 -51v457q-193 45 -274.5 149.5t-81.5 260.5q0 178 96 288.5t260 130.5v144h105v-144q86 -2 156.5 -25.5t138.5 -72.5q12 -8 25.5 -18.5t25.5 -20.5l-119 -155q-39 37 -88 59.5t-98 30.5q-10 2 -20.5 4t-20.5 2v-436 q197 -39 286 -152t89 -270q0 -170 -102.5 -287t-272.5 -139v-223h-105v221q-4 2 -9 2h-9q-113 4 -219.5 58t-184.5 134zM291 1055q0 -72 31.5 -118t115.5 -75v412q-59 -8 -103 -60.5t-44 -158.5zM543 184q94 23 130 84.5t36 149.5q0 70 -34 125t-132 73v-432z" />
<glyph unicode="%" horiz-adv-x="1062" d="M104 1128v140q0 109 59.5 155.5t133.5 46.5t133 -47t59 -155v-140q0 -106 -59 -154t-133 -48t-133.5 48t-59.5 154zM119 0l690 1458h135l-690 -1458h-135zM221 1143q0 -49 19.5 -75t56.5 -26t56.5 26t19.5 75v110q0 49 -19.5 75t-56.5 26t-56.5 -25.5t-19.5 -75.5v-110z M573 190v140q0 109 59.5 155.5t133.5 46.5t133 -47t59 -155v-140q0 -106 -59 -153t-133 -47t-133.5 47t-59.5 153zM690 205q0 -49 19.5 -75t56.5 -26t56.5 26t19.5 75v110q0 49 -19.5 75t-56.5 26t-56.5 -25.5t-19.5 -75.5v-110z" />
<glyph unicode="&#x26;" horiz-adv-x="1327" d="M80 436q0 129 72.5 243t205.5 183q-51 59 -85.5 131t-34.5 146q0 133 90 232t237 99t237.5 -99t90.5 -232q0 -100 -56.5 -182.5t-187.5 -143.5l312 -375q45 57 74.5 117.5t51.5 126.5l187 -74q-10 -25 -21.5 -50.5t-23.5 -51.5q-31 -57 -67 -112.5t-79 -100.5l246 -293 h-246l-135 147q-90 -68 -190.5 -112.5t-216.5 -44.5q-205 0 -333 133t-128 313zM264 438q0 -115 81 -190.5t190 -75.5q41 0 87 11.5t91 35.5q29 14 57.5 34.5t56.5 47.5l-352 422q-111 -59 -161 -133t-50 -152zM422 1147q0 -20 7 -42t17 -44q14 -25 36 -51.5t48 -48.5 q102 39 140.5 85t38.5 101q0 57 -41 98t-103 41q-61 0 -102 -41t-41 -98z" />
<glyph unicode="'" horiz-adv-x="491" d="M166 1098v360h160v-360h-160z" />
<glyph unicode="(" horiz-adv-x="569" d="M123 625q0 66 8 132t23 132q35 152 107.5 298t184.5 271h82q-92 -193 -144 -401.5t-52 -431.5t52 -431t144 -401v-2h-82q-113 127 -185.5 272.5t-106.5 296.5q-14 66 -22.5 132.5t-8.5 132.5z" />
<glyph unicode=")" horiz-adv-x="569" d="M41 -209q92 195 144.5 402.5t52.5 431.5q0 223 -52.5 432t-144.5 401h82q113 -125 185.5 -271.5t107.5 -297.5q14 -66 22 -132.5t8 -131.5q0 -66 -8 -132.5t-22 -132.5q-35 -152 -107.5 -297t-185.5 -270z" />
<glyph unicode="*" horiz-adv-x="720" d="M74 1051l170 104l-170 105l61 94l164 -94v198h123v-198l164 94l61 -94l-170 -105l170 -104l-61 -95l-164 95v-199h-123v199l-164 -95z" />
<glyph unicode="+" horiz-adv-x="1228" d="M96 438v160h439v438h159v-438h439v-160h-439v-438h-159v438h-439z" />
<glyph unicode="," horiz-adv-x="491" d="M141 -152v361h209v-209z" />
<glyph unicode="-" horiz-adv-x="833" d="M109 463v209h616v-209h-616z" />
<glyph unicode="." horiz-adv-x="491" d="M141 0v209h209v-209h-209z" />
<glyph unicode="/" horiz-adv-x="681" d="M16 -12l490 1482h160l-490 -1482h-160z" />
<glyph unicode="0" horiz-adv-x="983" d="M78 408v643q0 201 126 310t288 109t287.5 -109.5t125.5 -309.5v-643q0 -201 -126 -309.5t-287 -108.5q-162 0 -288 108.5t-126 309.5zM287 420q0 -106 56 -164.5t149 -58.5q92 0 148 58t56 165v618q0 106 -56 165t-148 59t-148.5 -58.5t-56.5 -165.5v-618z" />
<glyph unicode="1" horiz-adv-x="983" d="M190 1085v222l207 151h209v-1458h-209v1237z" />
<glyph unicode="2" horiz-adv-x="983" d="M66 0v197l569 712q35 43 44 78t9 68v3v3q-2 76 -55 138.5t-146 62.5q-84 0 -144 -56.5t-69 -154.5h-208q2 178 121.5 298.5t283.5 120.5q182 0 304 -121.5t122 -295.5q0 -72 -20.5 -135.5t-67.5 -120.5l-469 -588h557v-209h-831z" />
<glyph unicode="3" horiz-adv-x="983" d="M27 362h209q29 -76 79 -120.5t138 -44.5t154.5 62.5t66.5 168.5q0 109 -66.5 170t-158.5 61h-89v185h72q104 0 164.5 59.5t60.5 147.5q0 90 -62.5 150.5t-150.5 60.5h-4h-4q-63 -2 -119.5 -46.5t-72.5 -130.5h-209q12 156 129 270.5t272 114.5q195 0 312.5 -128 t117.5 -287v-9.5v-9.5q-4 -78 -36.5 -152.5t-118.5 -129.5q84 -53 125 -130t45 -159q2 -8 2 -15.5v-15.5q0 -203 -128 -323.5t-315 -120.5q-147 0 -266 95t-147 277z" />
<glyph unicode="4" horiz-adv-x="983" d="M25 217v197l487 1044h233l-493 -1044h381v420h209v-420h116v-197h-116v-217h-209v217h-608z" />
<glyph unicode="5" horiz-adv-x="983" d="M76 367h209q16 -78 68.5 -124t140.5 -46q125 0 161.5 73.5t40.5 161.5q2 20 2 40v38q0 121 -41 201t-170 80q-59 0 -105 -28t-83 -93h-197v788h777v-209h-580v-329q53 41 109.5 60t123.5 19q84 0 153 -31.5t108 -74.5l9 -9t9 -12q49 -57 72.5 -133.5t23.5 -244.5 q0 -141 -19.5 -213t-64.5 -129q-2 -2 -3 -4.5t-3 -4.5t-4 -5t-4 -5q-47 -55 -125 -99t-182 -44q-14 0 -27.5 1t-25.5 1q-129 12 -241 101t-132 274z" />
<glyph unicode="6" horiz-adv-x="983" d="M74 432q0 66 14 127.5t41 116.5l391 782h234l-308 -616h5q14 6 30.5 9t32.5 5q12 2 24.5 3t22.5 1q139 0 243.5 -96t104.5 -309q0 -250 -133 -357.5t-297 -107.5q-152 0 -278.5 118.5t-126.5 323.5zM283 436q0 -123 57 -181t152 -58q8 0 18 1t18 3q66 10 119 65.5 t53 169.5q0 123 -61 181.5t-147 58.5t-147.5 -58.5t-61.5 -181.5z" />
<glyph unicode="7" horiz-adv-x="983" d="M104 1038v420h830v-209l-494 -1249h-233l493 1249h-387v-211h-209z" />
<glyph unicode="8" horiz-adv-x="983" d="M47 426q0 102 45 187t127 141q-63 59 -104 129.5t-41 165.5q0 176 120.5 298.5t297.5 122.5q176 0 296.5 -122.5t120.5 -298.5q0 -94 -40 -165t-105 -130q84 -55 128 -140.5t44 -187.5q0 -193 -131 -314.5t-313 -121.5q-180 0 -312.5 121.5t-132.5 314.5zM256 428 q0 -100 70.5 -165.5t165.5 -65.5q94 0 164.5 65.5t70.5 165.5t-70.5 165.5t-164.5 65.5t-165 -65.5t-71 -165.5zM283 1053q0 -102 64.5 -155.5t144.5 -53.5t144 53t64 156q0 102 -64.5 155.5t-143.5 53.5q-80 0 -144.5 -53.5t-64.5 -155.5z" />
<glyph unicode="9" horiz-adv-x="983" d="M74 1004q0 250 134 358t296 108q152 0 278.5 -118.5t126.5 -325.5q0 -63 -13 -125.5t-42 -118.5l-391 -782h-234l308 616h-5q-14 -6 -30.5 -9t-32.5 -5q-12 -2 -24.5 -3t-22.5 -1q-137 0 -242.5 97.5t-105.5 308.5zM283 1022q0 -123 61.5 -181.5t147.5 -58.5t147 58.5 t61 181.5t-56 181.5t-152 58.5q-8 0 -18.5 -1t-18.5 -4q-66 -10 -119 -65t-53 -170z" />
<glyph unicode=":" horiz-adv-x="491" d="M141 0v209h209v-209h-209zM141 465v209h209v-209h-209z" />
<glyph unicode=";" horiz-adv-x="491" d="M141 -152v361h209v-209zM141 465v209h209v-209h-209z" />
<glyph unicode="&#x3c;" horiz-adv-x="1228" d="M96 444v148l1037 461v-172l-852 -363l852 -362v-172z" />
<glyph unicode="=" horiz-adv-x="1228" d="M96 233v160h1037v-160h-1037zM96 643v160h1037v-160h-1037z" />
<glyph unicode="&#x3e;" horiz-adv-x="1228" d="M96 -16v172l852 362l-852 363v172l1037 -461v-148z" />
<glyph unicode="?" horiz-adv-x="948" d="M59 1038v41q0 164 116 277.5t271 113.5q152 0 274 -106.5t122 -286.5q0 -63 -17.5 -117.5t-48.5 -97.5l-186 -256q-2 -4 -4 -7t-4 -5q-16 -27 -21.5 -54.5t-5.5 -62.5v-117h-209v134q0 43 4 77.5t21 67.5q4 12 11 25.5t17 25.5l183 254q27 35 39 69t12 66q0 72 -44 119 t-97 59q-8 2 -17.5 3.5t-17.5 1.5q-76 0 -132.5 -50.5t-56.5 -173.5h-209zM346 0v209h209v-209h-209z" />
<glyph unicode="@" horiz-adv-x="1638" d="M78 737q0 324 220 528.5t546 204.5q295 0 506 -172t211 -440q0 -182 -92.5 -317t-204.5 -201q-45 -27 -89.5 -41t-80.5 -14q-70 0 -112 32.5t-52 98.5h-4q-41 -49 -97.5 -90t-160.5 -41q-127 0 -209 92t-82 219q0 14 1 27.5t1 25.5q18 190 150.5 349t336.5 159 q72 0 134.5 -38t97.5 -122h4l24 105h136l-164 -531q-8 -27 -14.5 -54.5t-6.5 -49.5q0 -27 10.5 -43t36.5 -16q18 0 38 8t40 22q59 41 112.5 128t74.5 184q6 25 9 49t3 49q0 201 -151.5 332t-395.5 131q-291 0 -453.5 -173t-162.5 -405q0 -248 170 -417t456 -169 q184 0 306 49.5t210 141.5h136q-102 -164 -281.5 -256t-394.5 -92q-326 0 -544 210t-218 537zM537 610q0 -82 50 -136t126 -54q96 0 173 85t115 185q14 39 22.5 78t8.5 72q0 70 -47 126t-119 56q-111 0 -191.5 -89t-115.5 -194q-10 -35 -16 -66.5t-6 -62.5z" />
<glyph unicode="A" horiz-adv-x="1249" d="M2 0l530 1458h185l530 -1458h-233l-113 326h-553l-112 -326h-234zM412 522h426l-211 637h-4z" />
<glyph unicode="B" horiz-adv-x="1249" d="M154 0v1458h565q213 0 322.5 -109.5t109.5 -281.5q0 -90 -44 -173t-171 -140v-4q115 -27 174 -120t64 -202v-6v-8q0 -188 -121 -301t-285 -113h-614zM375 209h340q123 0 180 66.5t57 152.5t-57 152.5t-180 66.5h-340v-438zM375 844h319q121 0 178.5 61.5t57.5 147.5 q0 84 -57.5 146.5t-178.5 62.5h-319v-418z" />
<glyph unicode="C" horiz-adv-x="1138" d="M104 729q0 231 10.5 313t37.5 136q4 8 8 15t8 15q2 6 6 11.5t6 11.5q57 90 170 164.5t275 74.5q207 0 343 -126.5t169 -305.5h-234q-27 84 -100.5 147.5t-177.5 63.5q-78 0 -134.5 -31.5t-91.5 -74.5q-4 -6 -9 -12.5t-9 -12.5q-31 -47 -43 -118.5t-12 -270.5t12 -270.5 t43 -118.5q4 -6 9 -12t9 -13q35 -43 91.5 -74.5t134.5 -31.5q92 0 162.5 50t115.5 149h234q-43 -205 -183.5 -311.5t-328.5 -106.5q-162 0 -274.5 73.5t-170.5 163.5q-2 6 -6 11.5t-6 11.5q-4 8 -8 15t-8 16q-27 53 -37.5 136t-10.5 312z" />
<glyph unicode="D" horiz-adv-x="1290" d="M154 0v1458h510q145 0 259.5 -62.5t184.5 -183.5q12 -20 21.5 -37.5t15.5 -33.5q29 -66 35 -149t6 -263q0 -211 -11.5 -297t-46.5 -147q-4 -10 -11 -21.5t-13 -21.5q-63 -100 -177 -171t-278 -71h-495zM375 209h264q94 0 160.5 31.5t109.5 95.5q4 6 8.5 13t8.5 13 q27 45 33 113t6 246q0 182 -8.5 258t-45.5 129q-2 4 -5 9t-7 9q-51 70 -110.5 96.5t-149.5 26.5h-264v-1040z" />
<glyph unicode="E" horiz-adv-x="1138" d="M154 0v1458h931v-209h-710v-415h606v-197h-606v-428h710v-209h-931z" />
<glyph unicode="F" horiz-adv-x="1099" d="M154 0v1458h931v-209h-710v-430h606v-196h-606v-623h-221z" />
<glyph unicode="G" horiz-adv-x="1249" d="M104 729q0 231 10.5 313t37.5 136q4 8 8 15t8 15q2 6 6 11.5t6 11.5q57 90 170 164.5t275 74.5q207 0 343 -126.5t169 -305.5h-234q-27 84 -100.5 147.5t-177.5 63.5q-78 0 -134.5 -31.5t-91.5 -74.5q-4 -6 -9 -12.5t-9 -12.5q-31 -47 -43 -118.5t-12 -270.5t12 -270.5 t43 -118.5q4 -6 9 -12t9 -13q35 -43 91.5 -74.5t134.5 -31.5q127 0 213 86t86 223v76h-297v209h518v-297q0 -217 -150.5 -366.5t-369.5 -149.5q-162 0 -274.5 73.5t-170.5 163.5q-2 6 -6 11.5t-6 11.5q-4 8 -8 15t-8 16q-27 53 -37.5 136t-10.5 312z" />
<glyph unicode="H" horiz-adv-x="1327" d="M154 0v1458h221v-624h577v624h222v-1458h-222v637h-577v-637h-221z" />
<glyph unicode="I" horiz-adv-x="528" d="M154 0v1458h221v-1458h-221z" />
<glyph unicode="J" horiz-adv-x="985" d="M2 178l178 129q29 -41 79 -69.5t116 -28.5q14 0 29.5 2t31.5 4q72 16 131.5 76.5t59.5 183.5v983h221v-1005q0 -217 -145.5 -340t-321.5 -123q-125 0 -221.5 52t-157.5 136z" />
<glyph unicode="K" horiz-adv-x="1290" d="M154 0v1458h221v-751h4l600 751h262l-467 -575l516 -883h-262l-397 713l-256 -269v-444h-221z" />
<glyph unicode="L" horiz-adv-x="1138" d="M154 0v1458h221v-1249h710v-209h-931z" />
<glyph unicode="M" horiz-adv-x="1552" d="M154 0v1458h208l418 -950l410 950h209v-1458h-221v909h-4l-306 -700h-184l-305 700h-4v-909h-221z" />
<glyph unicode="N" horiz-adv-x="1400" d="M154 0v1458h208l660 -1036h4v1036h221v-1458h-209l-659 1036h-4v-1036h-221z" />
<glyph unicode="O" horiz-adv-x="1249" d="M104 729q0 231 10.5 313t37.5 136q4 8 8 15t8 15q2 6 6 11.5t6 11.5q57 90 170 164.5t275 74.5t274.5 -74.5t169.5 -164.5q2 -6 6 -11.5t6 -11.5q4 -8 8.5 -15t8.5 -15q27 -53 37 -135t10 -314q0 -229 -10.5 -312t-36.5 -136q-4 -8 -8.5 -15.5t-8.5 -15.5q-2 -6 -6 -11.5 t-6 -11.5q-57 -90 -170 -163.5t-274 -73.5q-162 0 -274.5 73.5t-170.5 163.5q-2 6 -6 11.5t-6 11.5q-4 8 -8 15t-8 16q-27 53 -37.5 136t-10.5 312zM326 729q0 -199 12 -270.5t43 -118.5q4 -6 9 -12t9 -13q35 -43 91.5 -74.5t134.5 -31.5t135 31.5t90 74.5q4 6 9 12.5 t9 12.5q31 47 43.5 118.5t12.5 270.5t-12.5 270.5t-43.5 118.5q-4 6 -9 12.5t-9 12.5q-33 43 -90.5 74.5t-134.5 31.5q-78 0 -134.5 -31.5t-91.5 -74.5q-4 -6 -9 -12.5t-9 -12.5q-31 -47 -43 -118.5t-12 -270.5z" />
<glyph unicode="P" horiz-adv-x="1214" d="M154 0v1458h528q47 0 90 -4t86 -18q37 -10 75 -30t77 -50q66 -51 111.5 -140.5t45.5 -207.5q0 -14 -1 -29.5t-3 -30.5q-20 -143 -135 -261t-317 -118h-336v-569h-221zM375 778h327q117 0 177.5 68.5t66.5 150.5v8.5v8.5q0 74 -26.5 121t-67.5 73q-6 4 -13.5 8.5 t-13.5 8.5q-29 14 -60.5 19t-70.5 5h-319v-471z" />
<glyph unicode="Q" horiz-adv-x="1249" d="M104 729q0 231 10.5 313t37.5 136q4 8 8 15t8 15q2 6 6 11.5t6 11.5q57 90 170 164.5t275 74.5t274.5 -74.5t169.5 -164.5q2 -6 6 -11.5t6 -11.5q4 -8 8.5 -15t8.5 -15q27 -53 37 -135t10 -314q0 -227 -10.5 -310t-38.5 -138q0 -2 -1 -4.5t-3 -4.5l192 -153l-131 -152 l-184 148q-63 -55 -149.5 -90t-194.5 -35q-162 0 -274.5 73.5t-170.5 163.5q-2 6 -6 11.5t-6 11.5q-4 8 -8 15t-8 16q-27 53 -37.5 136t-10.5 312zM326 729q0 -199 12 -270.5t43 -118.5q4 -6 9 -12t9 -13q35 -43 91.5 -74.5t134.5 -31.5q51 0 92 14.5t71 36.5l-186 148 l131 151l170 -135q12 41 16.5 112.5t4.5 192.5q0 199 -12.5 270.5t-43.5 118.5q-4 6 -9 12.5t-9 12.5q-33 43 -90.5 74.5t-134.5 31.5q-78 0 -134.5 -31.5t-91.5 -74.5q-4 -6 -9 -12.5t-9 -12.5q-31 -47 -43 -118.5t-12 -270.5z" />
<glyph unicode="R" horiz-adv-x="1249" d="M154 0v1458h569q92 0 166 -22.5t131 -73.5q61 -51 103 -132t42 -179q0 -141 -74.5 -249t-207.5 -155l338 -647h-263l-301 623h-282v-623h-221zM375 819h334q125 0 186 69.5t61 162.5q0 57 -19 99t-54 67q-31 23 -68 34t-94 11h-346v-443z" />
<glyph unicode="S" horiz-adv-x="1175" d="M27 188l145 166q84 -66 190.5 -105.5t223.5 -39.5q135 0 211.5 56.5t76.5 146.5q0 78 -46 131t-144 65q-18 2 -34.5 4t-33.5 4q-29 4 -58.5 9.5t-65.5 9.5q-188 27 -288 139.5t-100 269.5q0 188 125 307t351 119q135 0 253.5 -43t219.5 -108l-123 -182q-80 51 -172 81.5 t-189 30.5q-100 0 -171.5 -52t-71.5 -157q0 -61 48 -115.5t158 -70.5q29 -4 71 -10t93 -13q205 -25 302.5 -147.5t97.5 -271.5q0 -201 -138.5 -311.5t-373.5 -110.5q-162 0 -302.5 49t-254.5 149z" />
<glyph unicode="T" d="M2 1262v196h1020v-196h-399v-1262h-222v1262h-399z" />
<glyph unicode="U" horiz-adv-x="1290" d="M127 494v964h221v-940q0 -150 86 -229.5t211 -79.5q127 0 212 80t85 229v940h221v-964q0 -227 -150.5 -365.5t-367.5 -138.5t-367.5 138t-150.5 366z" />
<glyph unicode="V" horiz-adv-x="1138" d="M2 1458h234l331 -1110h4l332 1110h234l-482 -1458h-172z" />
<glyph unicode="W" horiz-adv-x="1703" d="M23 1458h233l229 -1036h4l283 1036h160l282 -1036h5l229 1036h233l-364 -1458h-184l-279 1051h-4l-279 -1051h-184z" />
<glyph unicode="X" horiz-adv-x="1097" d="M-20 0l446 748l-418 710h250l291 -506l291 506h250l-418 -710l446 -748h-250l-319 543l-320 -543h-249z" />
<glyph unicode="Y" d="M-31 1458h234l309 -647l309 647h234l-439 -858v-600h-208v600z" />
<glyph unicode="Z" horiz-adv-x="1062" d="M66 0v184l661 1078h-635v196h905v-166l-663 -1083h663v-209h-931z" />
<glyph unicode="[" horiz-adv-x="569" d="M147 -209v1667h379v-135h-194v-1397h194v-135h-379z" />
<glyph unicode="\" horiz-adv-x="681" d="M16 1470h160l490 -1482h-160z" />
<glyph unicode="]" horiz-adv-x="569" d="M43 -74h195v1397h-195v135h379v-1667h-379v135z" />
<glyph unicode="^" horiz-adv-x="1228" d="M102 580l445 878h135l444 -878h-172l-340 706l-340 -706h-172z" />
<glyph unicode="_" d="M0 -154h1024v-102h-1024v102z" />
<glyph unicode="`" horiz-adv-x="491" d="M-59 1470h274l188 -299h-172z" />
<glyph unicode="a" d="M53 305q0 125 85 216t253 91h289v109q0 74 -50 103.5t-163 29.5q-82 0 -125 -17.5t-72 -62.5l-164 125q59 84 146.5 118t204.5 34q193 0 312.5 -75t119.5 -267v-709h-209v92h-4q-33 -53 -91.5 -77.5t-164.5 -24.5q-174 0 -270.5 90t-96.5 225zM250 315q0 -51 45 -91 t151 -40q131 0 182.5 30t51.5 151v75h-250q-92 0 -136 -33.5t-44 -91.5z" />
<glyph unicode="b" horiz-adv-x="1062" d="M135 0v1458h209v-530q59 55 123.5 89t144.5 34q96 0 165 -38t114 -98q2 -2 3 -4t3 -2q39 -55 53.5 -129.5t14.5 -259.5q0 -186 -14.5 -262t-53.5 -129q-2 0 -3 -2t-3 -4q-45 -57 -113.5 -95t-165.5 -38q-80 0 -149.5 32.5t-118.5 86.5v-109h-209zM344 471q4 -102 39 -188 t166 -86q147 0 177 101t30 222v3v3q0 119 -31 217.5t-176 98.5q-129 0 -165 -84t-40 -185v-27.5v-25.5v-24.5v-24.5z" />
<glyph unicode="c" horiz-adv-x="909" d="M55 518q0 287 145.5 410t325.5 123q119 0 212 -51.5t161 -129.5l-154 -137q-39 47 -92 78t-118 31q-127 0 -199 -77t-72 -247q0 -168 72 -244.5t199 -76.5q66 0 119 30.5t91 77.5l154 -137q-68 -78 -161 -128t-212 -50q-180 0 -325.5 121.5t-145.5 406.5z" />
<glyph unicode="d" horiz-adv-x="1062" d="M135 520q0 184 14.5 259t53.5 130q2 0 3 2t3 4q45 59 114.5 97.5t163.5 38.5q80 0 145.5 -34t123.5 -89v530h209v-1458h-209v109q-49 -53 -119 -86t-150 -33q-94 0 -163.5 38t-114.5 95q-2 2 -3 4t-3 2q-39 53 -53.5 129t-14.5 262zM344 520q0 -121 29.5 -222t177.5 -101 q131 0 166 86t39 188v24.5v24.5v25.5v27.5q-4 100 -40 184.5t-165 84.5q-145 0 -176 -98.5t-31 -217.5v-3v-3z" />
<glyph unicode="e" d="M84 516q0 270 113.5 390t251.5 141q16 2 31.5 3t31.5 1q172 0 300 -119t128 -320v-172h-647q0 -127 70.5 -191.5t177.5 -64.5q12 0 24.5 1t24.5 3q47 8 94 33t84 64l152 -129q-76 -88 -173.5 -127t-201.5 -39q-20 0 -40 1t-40 3q-143 18 -262 130t-119 392zM293 612h438 q-4 119 -65.5 180.5t-153.5 61.5t-153.5 -61.5t-65.5 -180.5z" />
<glyph unicode="f" horiz-adv-x="569" d="M63 879v159h105v138q0 145 81 213.5t202 68.5h135v-196h-119q-51 0 -70.5 -19.5t-19.5 -66.5v-138h209v-159h-209v-879h-209v879h-105z" />
<glyph unicode="g" horiz-adv-x="1062" d="M98 518q0 188 12.5 258t43.5 117q6 8 11 15t11 16q4 4 8 9t9 9q39 41 103 75t155 34q80 0 145.5 -31t122.5 -92v110h209v-1013q0 -233 -136.5 -344t-314.5 -111h-9h-9q-94 4 -185.5 51t-156.5 123l162 127q39 -37 91 -64.5t111 -27.5q104 0 171 58.5t67 164.5v107 q-49 -53 -119 -86t-149 -33q-90 0 -155 32.5t-103 73.5q-4 4 -8.5 9.5t-8.5 9.5q-6 8 -11 15t-11 15q-31 47 -43.5 117t-12.5 256zM307 518q0 -111 5 -153.5t24 -71.5q4 -4 6 -8t6 -9q2 -4 5 -7l7 -7q23 -25 61 -45t93 -20q53 0 91 20.5t61 44.5l7 7t5 7q4 4 6 8.5t6 8.5 q18 29 23.5 72t5.5 153q0 111 -5 155t-24 72q-4 4 -6 8.5t-6 8.5q-2 4 -5 7l-7 7q-23 25 -61 45.5t-91 20.5q-55 0 -93 -20.5t-61 -45.5l-7 -7t-5 -7q-4 -4 -6 -8t-6 -9q-18 -29 -23.5 -72.5t-5.5 -154.5z" />
<glyph unicode="h" horiz-adv-x="1099" d="M135 0v1458h209v-530h4q49 61 119 92t151 31q12 0 26.5 -1t27.5 -3q111 -18 202 -108.5t91 -248.5v-690h-209v618q0 106 -58.5 165t-146.5 59t-147.5 -58.5t-59.5 -165.5v-618h-209z" />
<glyph unicode="i" horiz-adv-x="491" d="M141 0v1038h209v-1038h-209zM141 1249v209h209v-209h-209z" />
<glyph unicode="j" horiz-adv-x="528" d="M-14 -223h59q53 2 85 27.5t32 84.5v-2v1151h209v-1167q0 -129 -85 -209t-218 -80l-82 -2v197zM162 1249v209h209v-209h-209z" />
<glyph unicode="k" horiz-adv-x="1062" d="M135 0v1458h209v-907h4l400 487h249l-358 -405l408 -633h-263l-276 485l-164 -186v-299h-209z" />
<glyph unicode="l" horiz-adv-x="528" d="M135 252v1206h209v-1190q0 -35 19.5 -53t58.5 -18h72v-197h-93q-113 0 -189.5 56.5t-76.5 195.5z" />
<glyph unicode="m" horiz-adv-x="1744" d="M147 0v1038h209v-110h4q49 61 119 92t152 31q109 0 173 -39t120 -97q66 72 143.5 104t183.5 32q12 0 26.5 -1t27.5 -3q111 -18 201.5 -108.5t90.5 -248.5v-690h-208v618q0 106 -58.5 165t-146.5 59t-147.5 -58.5t-59.5 -165.5v-618h-209v618q0 106 -58.5 165t-146.5 59 t-147.5 -58.5t-59.5 -165.5v-618h-209z" />
<glyph unicode="n" horiz-adv-x="1099" d="M135 0v1038h209v-110h4q49 61 119 92t151 31q12 0 26.5 -1t27.5 -3q111 -18 202 -108.5t91 -248.5v-690h-209v618q0 106 -58.5 165t-146.5 59t-147.5 -58.5t-59.5 -165.5v-618h-209z" />
<glyph unicode="o" d="M84 520q0 166 25.5 247t83.5 146l3 3l1 2q4 4 7 8t7 8q45 43 117.5 80t183.5 37t183.5 -37t117.5 -80q4 -4 7 -8t7 -8l1 -2l3 -3q57 -66 83 -146.5t26 -246.5t-25.5 -248t-83.5 -147l-3 -3l-1 -1q-4 -4 -7 -8t-7 -9q-45 -43 -117.5 -78.5t-183.5 -35.5t-183.5 35.5 t-117.5 78.5q-4 4 -7 8.5t-7 8.5l-1 1l-3 3q-57 66 -83 147.5t-26 247.5zM293 520q0 -100 8 -146t31 -83q2 -4 5 -9.5t7 -9.5q23 -33 69 -54t99 -21t99 21.5t69 53.5q4 4 7 9.5t5 9.5q23 37 31 83t8 144q0 100 -8 146.5t-31 83.5q-2 4 -5 9t-7 9q-23 33 -69 54.5t-99 21.5 t-99 -21.5t-69 -54.5q-4 -4 -7 -9t-5 -9q-23 -37 -31 -83.5t-8 -144.5z" />
<glyph unicode="p" horiz-adv-x="1062" d="M135 -420v1458h209v-108q49 53 118.5 87t149.5 34q96 0 165 -38t114 -98q2 -2 3 -4t3 -2q39 -53 53.5 -128.5t14.5 -262.5q0 -184 -14.5 -259t-53.5 -130q-2 0 -3 -2t-3 -4q-45 -57 -113.5 -95t-165.5 -38q-80 0 -144.5 32.5t-123.5 88.5v-531h-209zM344 465 q4 -100 40 -184t165 -84q145 0 176 98t31 217v3v3q0 121 -30 222.5t-177 101.5q-131 0 -166 -86t-39 -189v-24.5v-24.5v-25.5v-27.5z" />
<glyph unicode="q" horiz-adv-x="1062" d="M98 518q0 186 14.5 262t53.5 129q2 0 3 2t3 4q45 59 114.5 97.5t164.5 38.5q80 0 149.5 -34t118.5 -87v108h209v-1458h-209v531q-57 -55 -123 -88t-145 -33q-94 0 -164 38t-115 95q-2 2 -3 4t-3 2q-39 55 -53.5 130t-14.5 259zM307 512q0 -119 31 -217t176 -98 q129 0 165 84t40 184v27.5v25.5v24.5v24.5q-4 102 -39 188.5t-166 86.5q-147 0 -177 -101.5t-30 -222.5v-3v-3z" />
<glyph unicode="r" horiz-adv-x="796" d="M135 0v1038h209v-110h4q49 61 119 92t151 31q63 0 116.5 -21.5t101.5 -58.5l-152 -180q-16 12 -30.5 21t-28.5 15q-18 6 -37 10.5t-41 4.5q-76 0 -139.5 -51.5t-63.5 -165.5v-625h-209z" />
<glyph unicode="s" horiz-adv-x="983" d="M20 174l146 143q68 -66 145.5 -99.5t182.5 -33.5q90 0 147 34t57 99q0 55 -36.5 77t-90.5 26l-184 16q-129 10 -214 86t-85 209q0 158 111.5 239t275.5 81q137 0 234.5 -38t173.5 -104l-129 -151q-61 43 -128 69.5t-151 26.5q-100 0 -139 -36t-39 -89q0 -33 29.5 -62.5 t107.5 -35.5l172 -13q162 -10 231.5 -98t69.5 -213q0 -152 -124 -234.5t-306 -82.5q-125 0 -240.5 45t-216.5 139z" />
<glyph unicode="t" horiz-adv-x="569" d="M43 879v159h104v316h209v-316h152v-159h-152v-605q0 -43 17.5 -60t56.5 -17h78v-197h-109q-109 0 -180.5 66.5t-71.5 189.5v623h-104z" />
<glyph unicode="u" horiz-adv-x="1099" d="M135 348v690h209v-618q0 -106 59.5 -164.5t147.5 -58.5t146.5 58t58.5 165v618h209v-1038h-209v111h-4q-49 -61 -118 -91t-151 -30q-12 0 -24.5 1t-24.5 3q-113 14 -206 104t-93 250z" />
<glyph unicode="v" horiz-adv-x="909" d="M-12 1038h221l244 -727h4l243 727h222l-381 -1038h-172z" />
<glyph unicode="w" horiz-adv-x="1478" d="M4 1038h221l199 -727h4l236 727h151l236 -727h4l198 727h222l-332 -1038h-185l-217 727h-4l-217 -727h-184z" />
<glyph unicode="x" horiz-adv-x="983" d="M20 0l355 530l-340 508h250l207 -336l206 336h250l-340 -508l355 -530h-250l-221 346l-222 -346h-250z" />
<glyph unicode="y" horiz-adv-x="909" d="M-14 1038h221l246 -727h4l245 727h222l-447 -1253q-43 -119 -119.5 -161t-173.5 -42l-69 -2v197h61q41 2 76 23.5t49 68.5l57 172z" />
<glyph unicode="z" horiz-adv-x="909" d="M68 0v166l520 688h-492v184h746v-166l-520 -675h520v-197h-774z" />
<glyph unicode="{" horiz-adv-x="569" d="M29 557v135q78 0 118.5 73t40.5 173v293q0 109 59.5 168t141.5 59h174v-135h-100q-49 0 -69.5 -52t-20.5 -118v-264q0 -78 -27 -130t-57 -83q-23 -23 -44.5 -34t-31.5 -15v-4q10 -4 31.5 -14.5t44.5 -33.5q31 -31 57.5 -83t26.5 -134v-262q0 -63 20.5 -115.5t69.5 -52.5 l100 -2v-135h-174q-82 2 -141.5 61.5t-59.5 165.5v289q0 102 -41 175t-118 75z" />
<glyph unicode="|" horiz-adv-x="454" d="M147 -512v2048h160v-2048h-160z" />
<glyph unicode="}" horiz-adv-x="569" d="M6 -74h100q49 2 70 54.5t21 115.5v264q0 78 26.5 130.5t57.5 82.5q23 23 44 34t31 16v4q-10 4 -31.5 14t-43.5 33q-31 31 -57.5 83t-26.5 134v262q0 66 -20.5 118t-70.5 52h-100v135h174q82 0 141.5 -59.5t59.5 -167.5v-289q0 -102 41 -175t119 -75v-135 q-78 0 -119 -72.5t-41 -173.5v-293q0 -106 -59.5 -165.5t-141.5 -59.5l-174 -2v135z" />
<glyph unicode="~" horiz-adv-x="1228" d="M141 489q2 4 4 8.5t5 8.5q35 61 93 111.5t154 50.5q43 0 91.5 -14.5t97.5 -35.5q10 -4 19 -9t20 -9q6 -2 11 -5t9 -5q6 -2 12.5 -5t12.5 -5q45 -20 88 -37t76 -17q57 0 98 43t74 95q2 2 4 5t4 5l73 -129q-2 -4 -4 -8.5t-4 -8.5q-35 -61 -93 -111t-155 -50 q-51 0 -109 20.5t-118 46.5q-4 2 -9 4t-9 4q-6 2 -10.5 4.5t-10.5 4.5q-47 23 -91 40t-79 17q-57 0 -97 -41t-73 -88q-2 -4 -5 -8t-5 -9z" />
<glyph unicode="&#xa1;" horiz-adv-x="528" d="M133 -420l80 1098h104l78 -1098h-262zM160 829v209h209v-209h-209z" />
<glyph unicode="&#xa2;" horiz-adv-x="983" d="M70 518q0 268 131 393t297 140v186h82v-186q109 -12 191.5 -60.5t141.5 -120.5l-153 -137q-33 41 -77 68.5t-103 40.5v-645q59 12 103 40.5t77 67.5l153 -137q-59 -70 -142 -119t-191 -59v-189h-82v187q-166 14 -297 139t-131 391zM279 518q0 -152 58 -228.5t161 -92.5 v645q-102 -14 -160.5 -92t-58.5 -232z" />
<glyph unicode="&#xa3;" horiz-adv-x="983" d="M59 614v136h113q-31 63 -46 119.5t-22 113.5q-2 18 -3 36.5t-1 37.5q0 195 109.5 304t271.5 109q207 0 306.5 -117.5t99.5 -301.5h-209q-2 111 -51 167t-131 56t-134.5 -58.5t-52.5 -162.5q0 -25 2 -49.5t6 -49.5q10 -55 26.5 -108t37.5 -96h330v-136h-279q2 -8 5 -18 t5 -18q12 -37 19.5 -74t7.5 -70q0 -37 -8 -73.5t-23 -73.5q-6 -18 -14 -37t-18 -37q18 -2 41.5 -6t50.5 -8q8 0 15 -1t15 -3q29 -4 56.5 -7.5t50.5 -3.5q25 0 51.5 4.5t52.5 12.5q25 8 48.5 21.5t46.5 29.5l129 -162q-33 -27 -67 -45t-69 -31q-41 -14 -83 -19t-78 -5 q-29 0 -82.5 5t-110.5 13q-4 0 -7 1t-7 1q-55 6 -107.5 12.5t-85.5 6.5q-39 0 -86 -9.5t-94 -29.5v194q27 16 57.5 25.5t61.5 13.5q8 0 15 1t16 1q6 18 12 37t10 39q6 27 10 51.5t4 46.5q0 37 -12 85t-27 100q-2 8 -5 15t-5 15h-164z" />
<glyph unicode="&#xa4;" horiz-adv-x="983" d="M31 375l100 102q-33 41 -55.5 108.5t-22.5 143.5t21.5 142.5t56.5 111.5l-100 100l108 107l101 -100q43 35 110.5 57t143.5 22t141 -21.5t110 -55.5l101 98l106 -107l-98 -100q35 -45 57.5 -111.5t22.5 -142.5t-22.5 -143.5t-57.5 -110.5l98 -100l-106 -107l-101 101 q-45 -35 -110.5 -57.5t-140.5 -22.5q-76 0 -143.5 23.5t-110.5 56.5l-101 -101zM213 729q0 -135 78 -214t203 -79q127 0 203.5 79t76.5 214t-76.5 214t-203.5 79q-125 0 -203 -79t-78 -214z" />
<glyph unicode="&#xa5;" horiz-adv-x="983" d="M-29 1458h222l299 -647l299 647h221l-328 -667h213v-136h-279l-28 -55v-137h307v-135h-307v-328h-197v328h-307v135h307v137l-28 55h-279v136h213z" />
<glyph unicode="&#xa6;" horiz-adv-x="454" d="M147 -358v716h160v-716h-160zM147 666v716h160v-716h-160z" />
<glyph unicode="&#xa7;" horiz-adv-x="983" d="M94 551q0 139 38 214t163 130q-76 43 -105.5 102.5t-29.5 141.5q0 145 96 237t236 92q137 0 238 -85t101 -267h-184q0 72 -39 120t-116 48q-68 0 -103 -32.5t-43 -73.5q0 -6 -1 -11.5t-1 -11.5q0 -49 22.5 -76.5t77.5 -52.5q23 -8 50.5 -18.5t60.5 -20.5q4 -2 9 -3t9 -3 q158 -51 237 -128t79 -278q0 -113 -25.5 -183t-126.5 -130q-8 -6 -18 -12t-23 -12q92 -39 125 -109t33 -152q0 -170 -110.5 -269t-262.5 -99q-137 0 -241.5 99t-104.5 274v-2h184q4 -76 49.5 -125.5t127.5 -49.5q70 0 115.5 41t45.5 119q0 51 -15 80t-64 53 q-25 12 -55.5 23.5t-71.5 25.5l-78 27q-168 59 -223.5 140t-55.5 237zM303 567q0 -57 7 -93t28 -66q2 -2 4 -5.5t4 -5.5q20 -25 56 -44t90 -19q53 0 88.5 19.5t56.5 43.5q2 2 4 5.5t4 5.5q23 31 29 66.5t6 92.5q0 61 -7 94t-24 58q-2 4 -5 8t-7 8q-18 23 -56 42.5t-89 19.5 t-89 -19.5t-57 -42.5q-4 -4 -7 -8t-5 -8q-16 -25 -23.5 -57.5t-7.5 -94.5z" />
<glyph unicode="&#xa8;" horiz-adv-x="491" d="M-45 1200v221h221v-221h-221zM315 1200v221h222v-221h-222z" />
<glyph unicode="&#xa9;" horiz-adv-x="1638" d="M78 729q0 307 217 524t524 217t524.5 -217t217.5 -524t-217.5 -523t-524.5 -216t-524 216t-217 523zM238 729q0 -260 165.5 -427t415.5 -167t416 167t166 427t-166 427t-416 167t-415.5 -167t-165.5 -427zM395 729q0 207 117 340t328 133q150 0 255 -83t126 -251h-148 q-16 82 -79.5 134.5t-151.5 52.5q-137 0 -212 -94.5t-75 -227.5q0 -127 80 -228.5t211 -101.5q88 0 150.5 55.5t76.5 141.5h148q-27 -162 -128.5 -253t-246.5 -91q-209 0 -330 135t-121 338z" />
<glyph unicode="&#xaa;" horiz-adv-x="665" d="M12 1016q0 86 55.5 144.5t155.5 58.5h230v36q0 51 -37 64.5t-82 15.5h-11.5h-9.5q-76 0 -105.5 -10t-45.5 -37l-107 90q41 55 100.5 73.5t151.5 18.5q143 0 224 -45t81 -159v-426h-159v59h-4q-20 -33 -61.5 -50.5t-102.5 -17.5q-147 0 -210 57.5t-63 127.5zM172 1028 q0 -31 34 -45t75 -16h9h9q100 0 127 20.5t27 71.5v37h-164q-51 0 -84 -15.5t-33 -52.5z" />
<glyph unicode="&#xab;" horiz-adv-x="983" d="M96 567l418 414v-209l-209 -205l209 -205v-208zM469 567l418 414v-209l-209 -205l209 -205v-208z" />
<glyph unicode="&#xac;" horiz-adv-x="1228" d="M96 643v160h1037v-582h-160v422h-877z" />
<glyph unicode="&#xad;" />
<glyph unicode="&#xae;" horiz-adv-x="1638" d="M78 729q0 307 217 524t524 217t524.5 -217t217.5 -524t-217.5 -523t-524.5 -216t-524 216t-217 523zM238 729q0 -260 165.5 -427t415.5 -167t416 167t166 427t-166 427t-416 167t-415.5 -167t-165.5 -427zM539 317v865h327q150 0 223.5 -62.5t73.5 -195.5 q0 -129 -65.5 -185.5t-155.5 -66.5l248 -355h-172l-248 351h-84v-351h-147zM686 803h102q90 0 159 18.5t69 102.5q0 74 -59.5 98.5t-129.5 24.5h-3h-3h-135v-244z" />
<glyph unicode="&#xaf;" horiz-adv-x="491" />
<glyph unicode="&#xb0;" horiz-adv-x="819" d="M117 1178q0 121 86 206.5t207 85.5t206.5 -86t85.5 -206q0 -121 -86 -207t-206 -86q-121 0 -207 86t-86 207zM221 1178q0 -78 55.5 -133.5t133.5 -55.5t133 55.5t55 133.5t-55.5 133t-132.5 55q-78 0 -133.5 -55.5t-55.5 -132.5z" />
<glyph unicode="&#xb1;" horiz-adv-x="1228" d="M96 0v160h1037v-160h-1037zM96 580v159h439v297h159v-297h439v-159h-439v-297h-159v297h-439z" />
<glyph unicode="&#xb2;" horiz-adv-x="638" d="M31 588v147l360 385q4 4 7 8.5t5 6.5q16 20 24.5 39.5t8.5 44.5q0 47 -29.5 75.5t-82.5 28.5q-51 0 -81 -34t-34 -93h-172q0 123 81 198.5t199 75.5q129 0 210 -73.5t81 -177.5q0 -27 -4 -50.5t-16 -48.5q-8 -16 -18.5 -32.5t-26.5 -32.5l-303 -320h368v-147h-577z" />
<glyph unicode="&#xb3;" horiz-adv-x="638" d="M10 825h172q16 -45 51 -71.5t89 -26.5q59 0 97 32t38 85q0 57 -43 92t-105 35h-76v135h66q68 0 107.5 30.5t39.5 82.5q0 43 -34.5 73.5t-85.5 30.5q-47 0 -86 -26.5t-52 -79.5h-172q8 111 88 182t203 71q152 0 231.5 -76.5t79.5 -172.5v-9.5v-9.5q-4 -45 -26.5 -87 t-77.5 -75q59 -33 85 -80t30 -96v-8v-8q0 -121 -87 -194.5t-231 -73.5q-119 0 -199.5 60t-101.5 185z" />
<glyph unicode="&#xb4;" horiz-adv-x="491" d="M88 1171l188 299h275l-291 -299h-172z" />
<glyph unicode="&#xb5;" horiz-adv-x="1099" d="M135 -420v1458h209v-618q0 -106 59.5 -164.5t147.5 -58.5t146.5 58t58.5 165v618h209v-1038h-209v111h-4q-49 -61 -118 -91t-151 -30q-35 0 -69.5 7t-69.5 21v-438h-209z" />
<glyph unicode="&#xb6;" horiz-adv-x="1228" d="M98 1065q0 201 126 297t341 96h430v-1837h-159v1702h-148v-1702h-160v1063q-188 0 -309 110.5t-121 270.5z" />
<glyph unicode="&#xb7;" horiz-adv-x="491" />
<glyph unicode="&#xb8;" horiz-adv-x="491" d="M10 -412l37 84q35 -10 71 -19t72 -9q53 0 86 19.5t33 66.5q0 39 -29.5 57t-70.5 18q-10 0 -19.5 -1t-19.5 -5q-10 -2 -19.5 -6t-19.5 -10l-45 37l129 180h104l-90 -123h4q8 4 20.5 6t25.5 4h5h5q84 0 132 -46t48 -109q0 -98 -76 -145.5t-176 -47.5q-29 0 -60.5 5 t-62.5 16q-20 6 -41.5 13t-42.5 15z" />
<glyph unicode="&#xb9;" horiz-adv-x="638" d="M104 1200v172l136 90h172v-874h-172v702z" />
<glyph unicode="&#xba;" horiz-adv-x="665" d="M31 1151q0 82 9 126t38 81q4 6 8 11t10 11q41 47 103.5 68.5t134.5 21.5t133 -21.5t102 -68.5q6 -6 10.5 -11t8.5 -11q29 -37 38 -81t9 -126t-9.5 -126t-37.5 -81q-4 -6 -8.5 -11t-10.5 -11q-41 -45 -103.5 -68t-133.5 -23q-70 0 -132.5 23t-103.5 68q-6 6 -10 11t-8 11 q-29 37 -38 81t-9 126zM190 1151q0 -47 3.5 -72.5t17.5 -48.5q2 -2 4 -6t6 -8q18 -23 46 -36t65 -13q39 0 66.5 13t45.5 36q4 4 6.5 8t4.5 6q14 23 17 48.5t3 72.5t-3 72.5t-17 48.5q-2 2 -4 6t-7 8q-18 23 -45.5 36t-64.5 13q-39 0 -66.5 -13t-46.5 -36q-4 -4 -6 -8t-4 -6 q-14 -23 -17.5 -48.5t-3.5 -72.5z" />
<glyph unicode="&#xbb;" horiz-adv-x="983" d="M96 154v208l209 205l-209 205v209l418 -414zM469 154v208l209 205l-209 205v209l418 -414z" />
<glyph unicode="&#xbc;" horiz-adv-x="1476" d="M104 1200v172l136 90h172v-874h-172v702zM199 -35l882 1528h136l-883 -1528h-135zM770 127v147l317 596h173l-312 -596h223v226h172v-226h68v-147h-68v-127h-172v127h-401z" />
<glyph unicode="&#xbd;" horiz-adv-x="1476" d="M104 1200v172l136 90h172v-874h-172v702zM147 -35l883 1528h135l-882 -1528h-136zM834 0v147l360 385q4 4 7 8.5t5 6.5q16 20 24.5 39.5t8.5 44.5q0 47 -29.5 75.5t-83.5 28.5q-51 0 -80.5 -33.5t-33.5 -93.5h-172q0 123 80.5 199t199.5 76q129 0 210 -74t81 -178 q0 -27 -4 -50.5t-16 -48.5q-8 -16 -18.5 -32.5t-26.5 -32.5l-304 -320h369v-147h-577z" />
<glyph unicode="&#xbe;" horiz-adv-x="1476" d="M10 825h172q16 -45 51 -71.5t89 -26.5q59 0 97 32t38 85q0 57 -43 92t-105 35h-76v135h66q68 0 107.5 30.5t39.5 82.5q0 43 -34.5 73.5t-85.5 30.5q-47 0 -86 -26.5t-52 -79.5h-172q8 111 88 182t203 71q152 0 231.5 -76.5t79.5 -172.5v-9.5v-9.5q-4 -45 -26.5 -87 t-77.5 -75q59 -33 85 -80t30 -96v-8v-8q0 -121 -87 -194.5t-231 -73.5q-119 0 -199.5 60t-101.5 185zM260 -35l883 1528h135l-883 -1528h-135zM770 127v147l317 596h173l-312 -596h223v226h172v-226h68v-147h-68v-127h-172v127h-401z" />
<glyph unicode="&#xbf;" horiz-adv-x="948" d="M106 -37q0 63 17.5 116.5t48.5 96.5l186 256q2 4 4.5 7t4.5 5q16 27 21 54.5t5 62.5v117h209v-133q0 -43 -4 -78t-20 -68q-4 -12 -11.5 -25.5t-17.5 -25.5l-182 -254q-27 -35 -39.5 -67.5t-12.5 -65.5q0 -72 44 -119t98 -59q8 -2 17 -3t18 -1q78 0 133 50t55 171h209v-41 q0 -162 -116 -275.5t-271 -113.5q-152 0 -274 106.5t-122 286.5zM393 829v209h209v-209h-209z" />
<glyph unicode="&#xc0;" horiz-adv-x="1249" d="M2 0l530 1458h185l530 -1458h-233l-113 326h-553l-112 -326h-234zM319 1829h275l188 -299h-172zM412 522h426l-211 637h-4z" />
<glyph unicode="&#xc1;" horiz-adv-x="1249" d="M2 0l530 1458h185l530 -1458h-233l-113 326h-553l-112 -326h-234zM412 522h426l-211 637h-4zM467 1530l188 299h275l-291 -299h-172z" />
<glyph unicode="&#xc2;" horiz-adv-x="1249" d="M2 0l530 1458h185l530 -1458h-233l-113 326h-553l-112 -326h-234zM291 1530l217 299h233l217 -299h-196l-137 176l-138 -176h-196zM412 522h426l-211 637h-4z" />
<glyph unicode="&#xc3;" horiz-adv-x="1249" d="M2 0l530 1458h185l530 -1458h-233l-113 326h-553l-112 -326h-234zM260 1550q14 106 76.5 172t155.5 66q39 0 74.5 -12.5t70.5 -26.5t68.5 -26.5t64.5 -12.5h7h7q27 4 49.5 22.5t32.5 67.5h123q-16 -92 -69.5 -164.5t-155.5 -72.5q-10 0 -20.5 1t-20.5 3q-31 4 -59.5 13 t-55.5 22q-39 12 -73.5 24t-65.5 12q-6 0 -15.5 -2t-17.5 -4q-20 -8 -36.5 -27.5t-16.5 -54.5h-123zM412 522h426l-211 637h-4z" />
<glyph unicode="&#xc4;" horiz-adv-x="1249" d="M2 0l530 1458h185l530 -1458h-233l-113 326h-553l-112 -326h-234zM334 1559v221h221v-221h-221zM412 522h426l-211 637h-4zM694 1559v221h221v-221h-221z" />
<glyph unicode="&#xc5;" horiz-adv-x="1249" d="M2 0l530 1458h185l530 -1458h-233l-113 326h-553l-112 -326h-234zM412 522h426l-211 637h-4zM414 1710q0 88 61.5 149.5t149.5 61.5t149.5 -61.5t61.5 -149.5t-61.5 -149.5t-149.5 -61.5t-149.5 61.5t-61.5 149.5zM496 1710q0 -53 37.5 -91t91.5 -38q53 0 91 38t38 91 t-38 91t-91 38t-91 -38t-38 -91z" />
<glyph unicode="&#xc6;" horiz-adv-x="1857" d="M-23 0l793 1458h1034v-209h-710v-415h606v-197h-606v-428h710v-209h-932v326h-485l-176 -326h-234zM492 522h380v740h-4z" />
<glyph unicode="&#xc7;" horiz-adv-x="1138" d="M104 729q0 231 10.5 313t37.5 136q4 8 8 15t8 15q2 6 6 11.5t6 11.5q57 90 170 164.5t275 74.5q207 0 343 -126.5t169 -305.5h-234q-27 84 -100.5 147.5t-177.5 63.5q-78 0 -134.5 -31.5t-91.5 -74.5q-4 -6 -9 -12.5t-9 -12.5q-31 -47 -43 -118.5t-12 -270.5t12 -270.5 t43 -118.5q4 -6 9 -12t9 -13q35 -43 91.5 -74.5t134.5 -31.5q92 0 162.5 50t115.5 149h234q-39 -182 -156 -288t-281 -126l-86 -117h4q8 4 20.5 6t25.5 4h5h5q84 0 132 -46t48 -109q0 -98 -76 -145.5t-176 -47.5q-29 0 -60.5 5t-62.5 16q-20 6 -41.5 13t-42.5 15l37 84 q35 -10 71 -19t72 -9q53 0 86 19.5t33 66.5q0 39 -29.5 57t-70.5 18q-10 0 -19.5 -1t-19.5 -5q-10 -2 -19.5 -6t-19.5 -10l-45 37l123 168q-150 10 -253 81.5t-159 155.5q-4 6 -7 12.5t-7 12.5q-4 8 -8 15t-8 16q-27 53 -37.5 136t-10.5 312z" />
<glyph unicode="&#xc8;" horiz-adv-x="1138" d="M154 0v1458h931v-209h-710v-415h606v-197h-606v-428h710v-209h-931zM326 1829h274l188 -299h-172z" />
<glyph unicode="&#xc9;" horiz-adv-x="1138" d="M154 0v1458h931v-209h-710v-415h606v-197h-606v-428h710v-209h-931zM473 1530l189 299h274l-291 -299h-172z" />
<glyph unicode="&#xca;" horiz-adv-x="1138" d="M154 0v1458h931v-209h-710v-415h606v-197h-606v-428h710v-209h-931zM297 1530l217 299h234l217 -299h-197l-137 176l-137 -176h-197z" />
<glyph unicode="&#xcb;" horiz-adv-x="1138" d="M154 0v1458h931v-209h-710v-415h606v-197h-606v-428h710v-209h-931zM340 1559v221h221v-221h-221zM700 1559v221h222v-221h-222z" />
<glyph unicode="&#xcc;" horiz-adv-x="528" d="M-41 1829h274l189 -299h-172zM154 0v1458h221v-1458h-221z" />
<glyph unicode="&#xcd;" horiz-adv-x="528" d="M106 1530l189 299h274l-290 -299h-173zM154 0v1458h221v-1458h-221z" />
<glyph unicode="&#xce;" horiz-adv-x="528" d="M-70 1530l217 299h234l217 -299h-197l-137 176l-137 -176h-197zM154 0v1458h221v-1458h-221z" />
<glyph unicode="&#xcf;" horiz-adv-x="528" d="M-27 1559v221h222v-221h-222zM154 0v1458h221v-1458h-221zM334 1559v221h221v-221h-221z" />
<glyph unicode="&#xd0;" horiz-adv-x="1290" d="M0 637v197h154v624h510q145 0 259.5 -62.5t184.5 -183.5q12 -20 21.5 -37.5t15.5 -33.5q29 -66 35 -149t6 -263q0 -211 -11.5 -297t-46.5 -147q-4 -10 -11 -21.5t-13 -21.5q-63 -100 -177 -171t-278 -71h-495v637h-154zM375 209h264q94 0 160.5 31.5t109.5 95.5 q4 6 8.5 13t8.5 13q27 45 33 113t6 246q0 182 -8.5 258t-45.5 129q-2 4 -5 9t-7 9q-51 70 -110.5 96.5t-149.5 26.5h-264v-415h278v-197h-278v-428z" />
<glyph unicode="&#xd1;" horiz-adv-x="1400" d="M154 0v1458h208l660 -1036h4v1036h221v-1458h-209l-659 1036h-4v-1036h-221zM336 1550q14 106 76.5 172t154.5 66q39 0 75 -12.5t71 -26.5t68.5 -26.5t64.5 -12.5h7h7q27 4 49.5 22.5t32.5 67.5h123q-16 -92 -69.5 -164.5t-155.5 -72.5q-10 0 -20.5 1t-20.5 3 q-31 4 -59.5 13t-55.5 22q-39 12 -74 24t-65 12q-6 0 -15.5 -2t-17.5 -4q-20 -8 -36.5 -27.5t-16.5 -54.5h-123z" />
<glyph unicode="&#xd2;" horiz-adv-x="491" />
<glyph unicode="&#xd3;" horiz-adv-x="1249" d="M104 729q0 231 10.5 313t37.5 136q4 8 8 15t8 15q2 6 6 11.5t6 11.5q57 90 170 164.5t275 74.5t274.5 -74.5t169.5 -164.5q2 -6 6 -11.5t6 -11.5q4 -8 8.5 -15t8.5 -15q27 -53 37 -135t10 -314q0 -229 -10.5 -312t-36.5 -136q-4 -8 -8.5 -15.5t-8.5 -15.5q-2 -6 -6 -11.5 t-6 -11.5q-57 -90 -170 -163.5t-274 -73.5q-162 0 -274.5 73.5t-170.5 163.5q-2 6 -6 11.5t-6 11.5q-4 8 -8 15t-8 16q-27 53 -37.5 136t-10.5 312zM326 729q0 -199 12 -270.5t43 -118.5q4 -6 9 -12t9 -13q35 -43 91.5 -74.5t134.5 -31.5t135 31.5t90 74.5q4 6 9 12.5 t9 12.5q31 47 43.5 118.5t12.5 270.5t-12.5 270.5t-43.5 118.5q-4 6 -9 12.5t-9 12.5q-33 43 -90.5 74.5t-134.5 31.5q-78 0 -134.5 -31.5t-91.5 -74.5q-4 -6 -9 -12.5t-9 -12.5q-31 -47 -43 -118.5t-12 -270.5zM467 1530l188 299h275l-291 -299h-172z" />
<glyph unicode="&#xd4;" horiz-adv-x="1249" d="M104 729q0 231 10.5 313t37.5 136q4 8 8 15t8 15q2 6 6 11.5t6 11.5q57 90 170 164.5t275 74.5t274.5 -74.5t169.5 -164.5q2 -6 6 -11.5t6 -11.5q4 -8 8.5 -15t8.5 -15q27 -53 37 -135t10 -314q0 -229 -10.5 -312t-36.5 -136q-4 -8 -8.5 -15.5t-8.5 -15.5q-2 -6 -6 -11.5 t-6 -11.5q-57 -90 -170 -163.5t-274 -73.5q-162 0 -274.5 73.5t-170.5 163.5q-2 6 -6 11.5t-6 11.5q-4 8 -8 15t-8 16q-27 53 -37.5 136t-10.5 312zM291 1530l217 299h233l217 -299h-196l-137 176l-138 -176h-196zM326 729q0 -199 12 -270.5t43 -118.5q4 -6 9 -12t9 -13 q35 -43 91.5 -74.5t134.5 -31.5t135 31.5t90 74.5q4 6 9 12.5t9 12.5q31 47 43.5 118.5t12.5 270.5t-12.5 270.5t-43.5 118.5q-4 6 -9 12.5t-9 12.5q-33 43 -90.5 74.5t-134.5 31.5q-78 0 -134.5 -31.5t-91.5 -74.5q-4 -6 -9 -12.5t-9 -12.5q-31 -47 -43 -118.5t-12 -270.5z " />
<glyph unicode="&#xd5;" horiz-adv-x="1249" d="M104 729q0 231 10.5 313t37.5 136q4 8 8 15t8 15q2 6 6 11.5t6 11.5q57 90 170 164.5t275 74.5t274.5 -74.5t169.5 -164.5q2 -6 6 -11.5t6 -11.5q4 -8 8.5 -15t8.5 -15q27 -53 37 -135t10 -314q0 -229 -10.5 -312t-36.5 -136q-4 -8 -8.5 -15.5t-8.5 -15.5q-2 -6 -6 -11.5 t-6 -11.5q-57 -90 -170 -163.5t-274 -73.5q-162 0 -274.5 73.5t-170.5 163.5q-2 6 -6 11.5t-6 11.5q-4 8 -8 15t-8 16q-27 53 -37.5 136t-10.5 312zM260 1550q14 106 76.5 172t155.5 66q39 0 74.5 -12.5t70.5 -26.5t68.5 -26.5t64.5 -12.5h7h7q27 4 49.5 22.5t32.5 67.5h123 q-16 -92 -69.5 -164.5t-155.5 -72.5q-10 0 -20.5 1t-20.5 3q-31 4 -59.5 13t-55.5 22q-39 12 -73.5 24t-65.5 12q-6 0 -15.5 -2t-17.5 -4q-20 -8 -36.5 -27.5t-16.5 -54.5h-123zM326 729q0 -199 12 -270.5t43 -118.5q4 -6 9 -12t9 -13q35 -43 91.5 -74.5t134.5 -31.5 t135 31.5t90 74.5q4 6 9 12.5t9 12.5q31 47 43.5 118.5t12.5 270.5t-12.5 270.5t-43.5 118.5q-4 6 -9 12.5t-9 12.5q-33 43 -90.5 74.5t-134.5 31.5q-78 0 -134.5 -31.5t-91.5 -74.5q-4 -6 -9 -12.5t-9 -12.5q-31 -47 -43 -118.5t-12 -270.5z" />
<glyph unicode="&#xd6;" horiz-adv-x="1249" d="M104 729q0 231 10.5 313t37.5 136q4 8 8 15t8 15q2 6 6 11.5t6 11.5q57 90 170 164.5t275 74.5t274.5 -74.5t169.5 -164.5q2 -6 6 -11.5t6 -11.5q4 -8 8.5 -15t8.5 -15q27 -53 37 -135t10 -314q0 -229 -10.5 -312t-36.5 -136q-4 -8 -8.5 -15.5t-8.5 -15.5q-2 -6 -6 -11.5 t-6 -11.5q-57 -90 -170 -163.5t-274 -73.5q-162 0 -274.5 73.5t-170.5 163.5q-2 6 -6 11.5t-6 11.5q-4 8 -8 15t-8 16q-27 53 -37.5 136t-10.5 312zM326 729q0 -199 12 -270.5t43 -118.5q4 -6 9 -12t9 -13q35 -43 91.5 -74.5t134.5 -31.5t135 31.5t90 74.5q4 6 9 12.5 t9 12.5q31 47 43.5 118.5t12.5 270.5t-12.5 270.5t-43.5 118.5q-4 6 -9 12.5t-9 12.5q-33 43 -90.5 74.5t-134.5 31.5q-78 0 -134.5 -31.5t-91.5 -74.5q-4 -6 -9 -12.5t-9 -12.5q-31 -47 -43 -118.5t-12 -270.5zM334 1559v221h221v-221h-221zM694 1559v221h221v-221h-221z " />
<glyph unicode="&#xd7;" horiz-adv-x="1228" d="M137 156l367 362l-367 365l113 114l364 -366l363 366l115 -114l-367 -365l367 -362l-115 -113l-363 367l-364 -367z" />
<glyph unicode="&#xd8;" horiz-adv-x="1249" d="M104 729q0 231 10.5 313t37.5 136q4 8 8 15t8 15q2 6 6 11.5t6 11.5q57 90 170 164.5t275 74.5q90 0 164.5 -24.5t134.5 -65.5l100 181l94 -52l-110 -200q12 -12 22 -24.5t19 -24.5q10 -14 18 -26.5t14 -25.5q4 -8 8.5 -15t8.5 -15q27 -53 37 -135t10 -314 q0 -229 -10.5 -312t-36.5 -136q-4 -8 -8.5 -15.5t-8.5 -15.5q-2 -6 -6 -11.5t-6 -11.5q-57 -90 -170 -163.5t-274 -73.5q-90 0 -166 24.5t-135 67.5l-103 -184l-94 51l113 203q-23 27 -40.5 51t-31.5 47q-4 8 -8 15t-8 16q-27 53 -37.5 136t-10.5 312zM326 729 q0 -164 8 -239.5t28 -116.5l451 809q-35 31 -82 49t-106 18q-78 0 -134.5 -31.5t-91.5 -74.5q-4 -6 -9 -12.5t-9 -12.5q-31 -47 -43 -118.5t-12 -270.5zM434 281q35 -33 82 -52.5t109 -19.5q78 0 135 31.5t90 74.5q4 6 9 12.5t9 12.5q31 47 43.5 118.5t12.5 270.5 q0 170 -8.5 244t-30.5 117z" />
<glyph unicode="&#xd9;" horiz-adv-x="1290" d="M127 494v964h221v-940q0 -150 86 -229.5t211 -79.5q127 0 212 80t85 229v940h221v-964q0 -227 -150.5 -365.5t-367.5 -138.5t-367.5 138t-150.5 366zM340 1829h274l189 -299h-172z" />
<glyph unicode="&#xda;" horiz-adv-x="1290" d="M127 494v964h221v-940q0 -150 86 -229.5t211 -79.5q127 0 212 80t85 229v940h221v-964q0 -227 -150.5 -365.5t-367.5 -138.5t-367.5 138t-150.5 366zM487 1530l189 299h274l-291 -299h-172z" />
<glyph unicode="&#xdb;" horiz-adv-x="1290" d="M127 494v964h221v-940q0 -150 86 -229.5t211 -79.5q127 0 212 80t85 229v940h221v-964q0 -227 -150.5 -365.5t-367.5 -138.5t-367.5 138t-150.5 366zM311 1530l217 299h234l217 -299h-197l-137 176l-137 -176h-197z" />
<glyph unicode="&#xdc;" horiz-adv-x="1290" d="M127 494v964h221v-940q0 -150 86 -229.5t211 -79.5q127 0 212 80t85 229v940h221v-964q0 -227 -150.5 -365.5t-367.5 -138.5t-367.5 138t-150.5 366zM354 1559v221h221v-221h-221zM715 1559v221h221v-221h-221z" />
<glyph unicode="&#xdd;" horiz-adv-x="491" />
<glyph unicode="&#xde;" horiz-adv-x="1214" d="M154 0v1458h221v-254h336q207 0 322.5 -124t131.5 -273q0 -12 1 -23.5t1 -23.5t-1 -23.5t-1 -23.5q-16 -150 -131.5 -274t-322.5 -124h-336v-315h-221zM375 524h332q100 0 162.5 62.5t74.5 138.5q0 8 1 17.5t1 17.5t-1 17t-1 18q-12 76 -74.5 138t-164.5 62h-330v-471z " />
<glyph unicode="&#xdf;" horiz-adv-x="1099" d="M131 0v1130q0 172 124 256t312 84q178 0 290 -94t112 -252q0 -84 -39 -142t-111 -89q78 -31 114 -87t36 -140v-371q0 -121 -79 -208t-210 -87h-129v197h74q76 0 105.5 23.5t29.5 84.5v365q0 59 -26.5 90t-88.5 31h-121v196h125q51 0 81 26.5t30 94.5q0 41 -6 66.5 t-27 44.5q-16 16 -55 27t-82 14q-8 2 -17.5 2h-17.5h-1h-3h-3h-1q-113 -2 -158 -35t-49 -97v-1130h-209z" />
<glyph unicode="&#xe0;" d="M53 305q0 125 85 216t253 91h289v109q0 74 -50 103.5t-163 29.5q-82 0 -125 -17.5t-72 -62.5l-164 125q59 84 146.5 118t204.5 34q193 0 312.5 -75t119.5 -267v-709h-209v92h-4q-33 -53 -91.5 -77.5t-164.5 -24.5q-174 0 -270.5 90t-96.5 225zM207 1470h274l189 -299 h-172zM250 315q0 -51 45 -91t151 -40q131 0 182.5 30t51.5 151v75h-250q-92 0 -136 -33.5t-44 -91.5z" />
<glyph unicode="&#xe1;" d="M53 305q0 125 85 216t253 91h289v109q0 74 -50 103.5t-163 29.5q-82 0 -125 -17.5t-72 -62.5l-164 125q59 84 146.5 118t204.5 34q193 0 312.5 -75t119.5 -267v-709h-209v92h-4q-33 -53 -91.5 -77.5t-164.5 -24.5q-174 0 -270.5 90t-96.5 225zM250 315q0 -51 45 -91 t151 -40q131 0 182.5 30t51.5 151v75h-250q-92 0 -136 -33.5t-44 -91.5zM354 1171l189 299h274l-291 -299h-172z" />
<glyph unicode="&#xe2;" d="M53 305q0 125 85 216t253 91h289v109q0 74 -50 103.5t-163 29.5q-82 0 -125 -17.5t-72 -62.5l-164 125q59 84 146.5 118t204.5 34q193 0 312.5 -75t119.5 -267v-709h-209v92h-4q-33 -53 -91.5 -77.5t-164.5 -24.5q-174 0 -270.5 90t-96.5 225zM178 1171l217 299h234 l217 -299h-197l-137 177l-137 -177h-197zM250 315q0 -51 45 -91t151 -40q131 0 182.5 30t51.5 151v75h-250q-92 0 -136 -33.5t-44 -91.5z" />
<glyph unicode="&#xe3;" d="M53 305q0 125 85 216t253 91h289v109q0 74 -50 103.5t-163 29.5q-82 0 -125 -17.5t-72 -62.5l-164 125q59 84 146.5 118t204.5 34q193 0 312.5 -75t119.5 -267v-709h-209v92h-4q-33 -53 -91.5 -77.5t-164.5 -24.5q-174 0 -270.5 90t-96.5 225zM147 1192q14 106 77 172 t155 66q39 0 74.5 -12.5t70.5 -26.5t69 -26.5t64 -12.5h7.5h7.5q27 4 49 22.5t33 67.5h123q-16 -92 -69.5 -165t-156.5 -73q-10 0 -20 1t-21 3q-31 4 -59.5 13.5t-54.5 21.5q-39 12 -74 24.5t-66 12.5q-6 0 -15 -2t-17 -4q-20 -8 -37 -27.5t-17 -54.5h-123zM250 315 q0 -51 45 -91t151 -40q131 0 182.5 30t51.5 151v75h-250q-92 0 -136 -33.5t-44 -91.5z" />
<glyph unicode="&#xe4;" d="M53 305q0 125 85 216t253 91h289v109q0 74 -50 103.5t-163 29.5q-82 0 -125 -17.5t-72 -62.5l-164 125q59 84 146.5 118t204.5 34q193 0 312.5 -75t119.5 -267v-709h-209v92h-4q-33 -53 -91.5 -77.5t-164.5 -24.5q-174 0 -270.5 90t-96.5 225zM221 1200v221h221v-221 h-221zM250 315q0 -51 45 -91t151 -40q131 0 182.5 30t51.5 151v75h-250q-92 0 -136 -33.5t-44 -91.5zM582 1200v221h221v-221h-221z" />
<glyph unicode="&#xe5;" d="M53 305q0 125 85 216t253 91h289v109q0 74 -50 103.5t-163 29.5q-82 0 -125 -17.5t-72 -62.5l-164 125q59 84 146.5 118t204.5 34q193 0 312.5 -75t119.5 -267v-709h-209v92h-4q-33 -53 -91.5 -77.5t-164.5 -24.5q-174 0 -270.5 90t-96.5 225zM250 315q0 -51 45 -91 t151 -40q131 0 182.5 30t51.5 151v75h-250q-92 0 -136 -33.5t-44 -91.5zM301 1352q0 88 61.5 149.5t149.5 61.5t149.5 -61.5t61.5 -149.5t-61.5 -149.5t-149.5 -61.5t-149.5 61.5t-61.5 149.5zM383 1352q0 -53 38 -91t91 -38t91 37.5t38 91.5q0 53 -38 91t-91 38t-91 -38 t-38 -91z" />
<glyph unicode="&#xe6;" horiz-adv-x="1593" d="M39 305q0 117 80 212t231 95h316v109q0 74 -50.5 103.5t-162.5 29.5q-82 0 -125 -17.5t-72 -62.5l-164 125q59 84 146.5 118t203.5 34q123 0 207 -30t131 -101q37 49 101.5 81.5t134.5 42.5q16 4 32.5 5.5t32.5 1.5q172 0 300 -119t128 -320v-172h-647q0 -127 71 -191.5 t177 -64.5q12 0 24.5 1t24.5 3q47 8 94 33t84 64l152 -129q-76 -88 -173 -127t-202 -39q-113 0 -202 31.5t-160 125.5q-47 -72 -115 -107.5t-141 -43.5q-18 -4 -37 -5t-37 -1q-164 0 -273.5 80t-109.5 235zM236 315q0 -51 45 -91t151 -40q131 0 182.5 30t51.5 151v75h-250 q-92 0 -136 -33.5t-44 -91.5zM862 612h438q-4 119 -65 180.5t-154 61.5q-92 0 -153.5 -61.5t-65.5 -180.5z" />
<glyph unicode="&#xe7;" horiz-adv-x="909" d="M55 518q0 287 145.5 410t325.5 123q119 0 212 -51.5t161 -129.5l-154 -137q-39 47 -92 78t-118 31q-127 0 -199 -77t-72 -247q0 -168 72 -244.5t199 -76.5q66 0 119 30.5t91 77.5l154 -137q-57 -66 -133 -114t-170 -62l-86 -115h4q8 4 20.5 6t24.5 4h5h5q84 0 132.5 -46 t48.5 -109q0 -98 -76 -145.5t-176 -47.5q-29 0 -60.5 5t-62.5 16q-20 6 -42 13t-42 15l37 84q35 -10 70.5 -19t72.5 -9q53 0 86 19.5t33 66.5q0 39 -30 57t-71 18q-10 0 -19 -1t-19 -5q-10 -2 -19.5 -6t-19.5 -10l-45 37l122 168q-168 12 -301 136t-133 394z" />
<glyph unicode="&#xe8;" d="M84 516q0 270 113.5 390t251.5 141q16 2 31.5 3t31.5 1q172 0 300 -119t128 -320v-172h-647q0 -127 70.5 -191.5t177.5 -64.5q12 0 24.5 1t24.5 3q47 8 94 33t84 64l152 -129q-76 -88 -173.5 -127t-201.5 -39q-20 0 -40 1t-40 3q-143 18 -262 130t-119 392zM207 1470h274 l189 -299h-172zM293 612h438q-4 119 -65.5 180.5t-153.5 61.5t-153.5 -61.5t-65.5 -180.5z" />
<glyph unicode="&#xe9;" d="M84 516q0 270 113.5 390t251.5 141q16 2 31.5 3t31.5 1q172 0 300 -119t128 -320v-172h-647q0 -127 70.5 -191.5t177.5 -64.5q12 0 24.5 1t24.5 3q47 8 94 33t84 64l152 -129q-76 -88 -173.5 -127t-201.5 -39q-20 0 -40 1t-40 3q-143 18 -262 130t-119 392zM293 612h438 q-4 119 -65.5 180.5t-153.5 61.5t-153.5 -61.5t-65.5 -180.5zM354 1171l189 299h274l-291 -299h-172z" />
<glyph unicode="&#xea;" d="M84 516q0 270 113.5 390t251.5 141q16 2 31.5 3t31.5 1q172 0 300 -119t128 -320v-172h-647q0 -127 70.5 -191.5t177.5 -64.5q12 0 24.5 1t24.5 3q47 8 94 33t84 64l152 -129q-76 -88 -173.5 -127t-201.5 -39q-20 0 -40 1t-40 3q-143 18 -262 130t-119 392zM178 1171 l217 299h234l217 -299h-197l-137 177l-137 -177h-197zM293 612h438q-4 119 -65.5 180.5t-153.5 61.5t-153.5 -61.5t-65.5 -180.5z" />
<glyph unicode="&#xeb;" d="M84 516q0 270 113.5 390t251.5 141q16 2 31.5 3t31.5 1q172 0 300 -119t128 -320v-172h-647q0 -127 70.5 -191.5t177.5 -64.5q12 0 24.5 1t24.5 3q47 8 94 33t84 64l152 -129q-76 -88 -173.5 -127t-201.5 -39q-20 0 -40 1t-40 3q-143 18 -262 130t-119 392zM221 1200v221 h221v-221h-221zM293 612h438q-4 119 -65.5 180.5t-153.5 61.5t-153.5 -61.5t-65.5 -180.5zM582 1200v221h221v-221h-221z" />
<glyph unicode="&#xec;" horiz-adv-x="491" d="M-59 1470h274l188 -299h-172zM141 0v1038h209v-1038h-209z" />
<glyph unicode="&#xed;" horiz-adv-x="491" d="M88 1171l188 299h275l-291 -299h-172zM141 0v1038h209v-1038h-209z" />
<glyph unicode="&#xee;" horiz-adv-x="491" d="M-88 1171l217 299h233l218 -299h-197l-137 177l-137 -177h-197zM141 0v1038h209v-1038h-209z" />
<glyph unicode="&#xef;" horiz-adv-x="491" d="M-45 1200v221h221v-221h-221zM141 0v1038h209v-1038h-209zM315 1200v221h222v-221h-222z" />
<glyph unicode="&#xf0;" d="M84 520q0 166 25.5 247t83.5 146l3 3l1 2q4 4 7 8t7 8q45 43 114.5 80t168.5 37q61 0 119.5 -19.5t103.5 -73.5l4 5q-14 78 -48 141t-81 108l-207 -106l-78 113l170 88q-39 25 -84 45t-98 39l65 153q92 -27 167 -63.5t132 -79.5l213 110l78 -112l-184 -96 q20 -25 38.5 -49.5t33.5 -49.5q70 -115 86 -253t16 -398q0 -158 -12.5 -235.5t-55.5 -141.5q-10 -14 -21 -27.5t-24 -27.5q-4 -4 -7 -8t-7 -9q-45 -43 -117.5 -78.5t-183.5 -35.5t-183.5 35.5t-117.5 78.5q-4 4 -7 8.5t-7 8.5l-1 1l-3 3q-57 66 -83 147.5t-26 247.5z M293 520q0 -100 8 -146t31 -83q2 -4 5 -9.5t7 -9.5q23 -33 69 -54t99 -21t99 21.5t69 53.5q4 4 7 9.5t5 9.5q23 37 31 83t8 144q0 100 -8 146.5t-31 83.5q-2 4 -5 9t-7 9q-23 33 -69 54.5t-99 21.5t-99 -21.5t-69 -54.5q-4 -4 -7 -9t-5 -9q-23 -37 -31 -83.5t-8 -144.5z" />
<glyph unicode="&#xf1;" horiz-adv-x="1099" d="M135 0v1038h209v-110h4q49 61 119 92t151 31q12 0 26.5 -1t27.5 -3q111 -18 202 -108.5t91 -248.5v-690h-209v618q0 106 -58.5 165t-146.5 59t-147.5 -58.5t-59.5 -165.5v-618h-209zM186 1192q14 106 77 172t155 66q39 0 74.5 -12.5t70.5 -26.5t69 -26.5t64 -12.5h7.5 h7.5q27 4 49 22.5t33 67.5h122q-16 -92 -69 -165t-156 -73q-10 0 -20.5 1t-20.5 3q-31 4 -59.5 13.5t-54.5 21.5q-39 12 -74 24.5t-66 12.5q-6 0 -15 -2l-18 -4q-20 -8 -36.5 -27.5t-16.5 -54.5h-123z" />
<glyph unicode="&#xf2;" d="M84 520q0 166 25.5 247t83.5 146l3 3l1 2q4 4 7 8t7 8q45 43 117.5 80t183.5 37t183.5 -37t117.5 -80q4 -4 7 -8t7 -8l1 -2l3 -3q57 -66 83 -146.5t26 -246.5t-25.5 -248t-83.5 -147l-3 -3l-1 -1q-4 -4 -7 -8t-7 -9q-45 -43 -117.5 -78.5t-183.5 -35.5t-183.5 35.5 t-117.5 78.5q-4 4 -7 8.5t-7 8.5l-1 1l-3 3q-57 66 -83 147.5t-26 247.5zM207 1470h274l189 -299h-172zM293 520q0 -100 8 -146t31 -83q2 -4 5 -9.5t7 -9.5q23 -33 69 -54t99 -21t99 21.5t69 53.5q4 4 7 9.5t5 9.5q23 37 31 83t8 144q0 100 -8 146.5t-31 83.5q-2 4 -5 9 t-7 9q-23 33 -69 54.5t-99 21.5t-99 -21.5t-69 -54.5q-4 -4 -7 -9t-5 -9q-23 -37 -31 -83.5t-8 -144.5z" />
<glyph unicode="&#xf3;" d="M84 520q0 166 25.5 247t83.5 146l3 3l1 2q4 4 7 8t7 8q45 43 117.5 80t183.5 37t183.5 -37t117.5 -80q4 -4 7 -8t7 -8l1 -2l3 -3q57 -66 83 -146.5t26 -246.5t-25.5 -248t-83.5 -147l-3 -3l-1 -1q-4 -4 -7 -8t-7 -9q-45 -43 -117.5 -78.5t-183.5 -35.5t-183.5 35.5 t-117.5 78.5q-4 4 -7 8.5t-7 8.5l-1 1l-3 3q-57 66 -83 147.5t-26 247.5zM293 520q0 -100 8 -146t31 -83q2 -4 5 -9.5t7 -9.5q23 -33 69 -54t99 -21t99 21.5t69 53.5q4 4 7 9.5t5 9.5q23 37 31 83t8 144q0 100 -8 146.5t-31 83.5q-2 4 -5 9t-7 9q-23 33 -69 54.5t-99 21.5 t-99 -21.5t-69 -54.5q-4 -4 -7 -9t-5 -9q-23 -37 -31 -83.5t-8 -144.5zM354 1171l189 299h274l-291 -299h-172z" />
<glyph unicode="&#xf4;" d="M84 520q0 166 25.5 247t83.5 146l3 3l1 2q4 4 7 8t7 8q45 43 117.5 80t183.5 37t183.5 -37t117.5 -80q4 -4 7 -8t7 -8l1 -2l3 -3q57 -66 83 -146.5t26 -246.5t-25.5 -248t-83.5 -147l-3 -3l-1 -1q-4 -4 -7 -8t-7 -9q-45 -43 -117.5 -78.5t-183.5 -35.5t-183.5 35.5 t-117.5 78.5q-4 4 -7 8.5t-7 8.5l-1 1l-3 3q-57 66 -83 147.5t-26 247.5zM178 1171l217 299h234l217 -299h-197l-137 177l-137 -177h-197zM293 520q0 -100 8 -146t31 -83q2 -4 5 -9.5t7 -9.5q23 -33 69 -54t99 -21t99 21.5t69 53.5q4 4 7 9.5t5 9.5q23 37 31 83t8 144 q0 100 -8 146.5t-31 83.5q-2 4 -5 9t-7 9q-23 33 -69 54.5t-99 21.5t-99 -21.5t-69 -54.5q-4 -4 -7 -9t-5 -9q-23 -37 -31 -83.5t-8 -144.5z" />
<glyph unicode="&#xf5;" d="M84 520q0 166 25.5 247t83.5 146l3 3l1 2q4 4 7 8t7 8q45 43 117.5 80t183.5 37t183.5 -37t117.5 -80q4 -4 7 -8t7 -8l1 -2l3 -3q57 -66 83 -146.5t26 -246.5t-25.5 -248t-83.5 -147l-3 -3l-1 -1q-4 -4 -7 -8t-7 -9q-45 -43 -117.5 -78.5t-183.5 -35.5t-183.5 35.5 t-117.5 78.5q-4 4 -7 8.5t-7 8.5l-1 1l-3 3q-57 66 -83 147.5t-26 247.5zM147 1192q14 106 77 172t155 66q39 0 74.5 -12.5t70.5 -26.5t69 -26.5t64 -12.5h7.5h7.5q27 4 49 22.5t33 67.5h123q-16 -92 -69.5 -165t-156.5 -73q-10 0 -20 1t-21 3q-31 4 -59.5 13.5t-54.5 21.5 q-39 12 -74 24.5t-66 12.5q-6 0 -15 -2t-17 -4q-20 -8 -37 -27.5t-17 -54.5h-123zM293 520q0 -100 8 -146t31 -83q2 -4 5 -9.5t7 -9.5q23 -33 69 -54t99 -21t99 21.5t69 53.5q4 4 7 9.5t5 9.5q23 37 31 83t8 144q0 100 -8 146.5t-31 83.5q-2 4 -5 9t-7 9q-23 33 -69 54.5 t-99 21.5t-99 -21.5t-69 -54.5q-4 -4 -7 -9t-5 -9q-23 -37 -31 -83.5t-8 -144.5z" />
<glyph unicode="&#xf6;" d="M84 520q0 166 25.5 247t83.5 146l3 3l1 2q4 4 7 8t7 8q45 43 117.5 80t183.5 37t183.5 -37t117.5 -80q4 -4 7 -8t7 -8l1 -2l3 -3q57 -66 83 -146.5t26 -246.5t-25.5 -248t-83.5 -147l-3 -3l-1 -1q-4 -4 -7 -8t-7 -9q-45 -43 -117.5 -78.5t-183.5 -35.5t-183.5 35.5 t-117.5 78.5q-4 4 -7 8.5t-7 8.5l-1 1l-3 3q-57 66 -83 147.5t-26 247.5zM221 1200v221h221v-221h-221zM293 520q0 -100 8 -146t31 -83q2 -4 5 -9.5t7 -9.5q23 -33 69 -54t99 -21t99 21.5t69 53.5q4 4 7 9.5t5 9.5q23 37 31 83t8 144q0 100 -8 146.5t-31 83.5q-2 4 -5 9 t-7 9q-23 33 -69 54.5t-99 21.5t-99 -21.5t-69 -54.5q-4 -4 -7 -9t-5 -9q-23 -37 -31 -83.5t-8 -144.5zM582 1200v221h221v-221h-221z" />
<glyph unicode="&#xf7;" horiz-adv-x="1228" d="M96 438v160h1037v-160h-1037zM477 94q0 57 40 97t97 40t97.5 -39.5t40.5 -97.5q0 -57 -40 -96t-98 -39q-57 0 -97 39t-40 96zM477 942q0 57 40 97t97 40t97.5 -40t40.5 -97t-40 -97t-98 -40q-57 0 -97 40t-40 97z" />
<glyph unicode="&#xf8;" d="M84 520q0 166 25.5 247t83.5 146l3 3l1 2q4 4 7 8t7 8q45 43 117.5 80t183.5 37q68 0 121 -15.5t94 -38.5l90 156l90 -53l-96 -166l4 -4l4 -4q63 -66 92 -151t29 -255q0 -166 -25.5 -248t-83.5 -147l-3 -3l-1 -1q-4 -4 -7 -8t-7 -9q-45 -43 -117.5 -78.5t-183.5 -35.5 q-68 0 -120 14t-93 39l-92 -158l-90 54l96 167q-82 74 -105.5 171.5t-23.5 242.5zM293 520q0 -94 7 -139t26 -78l295 512q-23 12 -51.5 19.5t-57.5 7.5q-53 0 -99 -21.5t-69 -54.5q-4 -4 -7 -9t-5 -9q-23 -37 -31 -83.5t-8 -144.5zM403 225q23 -14 51.5 -21t57.5 -7 q53 0 99 21.5t69 53.5q4 4 7 9.5t5 9.5q23 37 31 83t8 144q0 94 -7 140.5t-26 78.5z" />
<glyph unicode="&#xf9;" horiz-adv-x="1099" d="M135 348v690h209v-618q0 -106 59.5 -164.5t147.5 -58.5t146.5 58t58.5 165v618h209v-1038h-209v111h-4q-49 -61 -118 -91t-151 -30q-12 0 -24.5 1t-24.5 3q-113 14 -206 104t-93 250zM233 1470h275l188 -299h-172z" />
<glyph unicode="&#xfa;" horiz-adv-x="1099" d="M135 348v690h209v-618q0 -106 59.5 -164.5t147.5 -58.5t146.5 58t58.5 165v618h209v-1038h-209v111h-4q-49 -61 -118 -91t-151 -30q-12 0 -24.5 1t-24.5 3q-113 14 -206 104t-93 250zM381 1171l188 299h275l-291 -299h-172z" />
<glyph unicode="&#xfb;" horiz-adv-x="1099" d="M135 348v690h209v-618q0 -106 59.5 -164.5t147.5 -58.5t146.5 58t58.5 165v618h209v-1038h-209v111h-4q-49 -61 -118 -91t-151 -30q-12 0 -24.5 1t-24.5 3q-113 14 -206 104t-93 250zM205 1171l217 299h233l217 -299h-196l-137 177l-138 -177h-196z" />
<glyph unicode="&#xfc;" horiz-adv-x="1099" d="M135 348v690h209v-618q0 -106 59.5 -164.5t147.5 -58.5t146.5 58t58.5 165v618h209v-1038h-209v111h-4q-49 -61 -118 -91t-151 -30q-12 0 -24.5 1t-24.5 3q-113 14 -206 104t-93 250zM248 1200v221h221v-221h-221zM608 1200v221h221v-221h-221z" />
<glyph unicode="&#xfd;" horiz-adv-x="491" />
<glyph unicode="&#xfe;" horiz-adv-x="1062" d="M135 -420v1878h209v-528q49 53 118.5 87t149.5 34q96 0 165 -38t114 -98q2 -2 3 -4t3 -2q39 -53 53.5 -128.5t14.5 -262.5q0 -184 -14.5 -259t-53.5 -130q-2 0 -3 -2t-3 -4q-45 -57 -113.5 -95t-165.5 -38q-80 0 -144.5 32.5t-123.5 88.5v-531h-209zM344 465 q4 -100 40 -184t165 -84q145 0 176 98t31 217v3v3q0 121 -30 222.5t-177 101.5q-131 0 -166 -86t-39 -189v-24.5v-24.5v-25.5v-27.5z" />
<glyph unicode="&#xff;" horiz-adv-x="909" d="M-14 1038h221l246 -727h4l245 727h222l-447 -1253q-43 -119 -119.5 -161t-173.5 -42l-69 -2v197h61q41 2 76 23.5t49 68.5l57 172zM164 1200v221h221v-221h-221zM524 1200v221h221v-221h-221z" />
<glyph unicode="&#x152;" horiz-adv-x="1896" d="M104 729q0 231 10.5 313t37.5 136q4 8 8 15t8 15q2 6 6 11.5t6 11.5q57 90 170 164.5t275 74.5h8h10q78 -4 152.5 -32.5t128.5 -91.5v112h915v-209h-694v-415h590v-197h-590v-428h698v-209h-919v115q-35 -41 -89.5 -71t-111.5 -44q-27 -4 -51.5 -7t-46.5 -3 q-162 0 -274.5 73.5t-170.5 163.5q-2 6 -6 11.5t-6 11.5q-4 8 -8 15t-8 16q-27 53 -37.5 136t-10.5 312zM326 729q0 -199 12 -270.5t43 -118.5q4 -6 9 -12t9 -13q35 -43 91.5 -74.5t134.5 -31.5t135 31.5t90 74.5q4 6 9 12.5t9 12.5q31 47 43.5 118.5t12.5 270.5 t-12.5 270.5t-43.5 118.5q-4 6 -9 12.5t-9 12.5q-33 43 -90.5 74.5t-134.5 31.5q-78 0 -134.5 -31.5t-91.5 -74.5q-4 -6 -9 -12.5t-9 -12.5q-31 -47 -43 -118.5t-12 -270.5z" />
<glyph unicode="&#x153;" horiz-adv-x="1671" d="M84 520q0 166 25.5 247t83.5 146l3 3l1 2q4 4 7 8t7 8q45 43 117.5 80t183.5 37q98 0 180 -42t146 -120q66 78 144.5 120t176.5 42q172 0 300 -119t128 -320v-172h-647q0 -127 70.5 -191.5t177.5 -64.5q12 0 24.5 1t24.5 3q47 8 94 33t84 64l152 -129 q-76 -88 -173.5 -127t-201.5 -39q-125 0 -216 46t-138 118q-55 -76 -139.5 -120t-186.5 -44q-111 0 -183.5 35.5t-117.5 78.5q-4 4 -7 8.5t-7 8.5l-1 1l-3 3q-57 66 -83 147.5t-26 247.5zM293 520q0 -111 8 -159t31 -85q4 -4 7 -8t5 -8q23 -33 69 -54.5t99 -21.5t99 21.5 t69 54.5q4 4 6 8t6 8q23 37 31 85.5t8 156.5q0 111 -8 159t-31 85q-4 4 -7 8t-5 8q-23 33 -69 54.5t-99 21.5t-99 -21.5t-69 -54.5q-4 -4 -6 -8t-6 -8q-23 -37 -31 -85t-8 -157zM940 612h438q-4 119 -65.5 180.5t-153.5 61.5t-153.5 -61.5t-65.5 -180.5z" />
<glyph unicode="&#x178;" d="M-31 1458h234l309 -647l309 647h234l-439 -858v-600h-208v600zM221 1559v221h221v-221h-221zM582 1559v221h221v-221h-221z" />
<glyph unicode="&#x2c6;" horiz-adv-x="491" d="M-119 1192q16 106 77.5 172t154.5 66q39 0 74.5 -12.5t70.5 -26.5t68.5 -26.5t64.5 -12.5h7h8q27 4 49 22.5t32 67.5h123q-16 -92 -69.5 -165t-155.5 -73q-10 0 -20.5 1t-20.5 3q-31 4 -59.5 13.5t-55.5 21.5q-39 12 -73.5 24.5t-65.5 12.5q-6 0 -15 -2l-18 -4 q-20 -8 -36.5 -27.5t-16.5 -54.5h-123z" />
<glyph unicode="&#x2dc;" horiz-adv-x="491" d="M-88 1171l217 299h233l218 -299h-197l-137 177l-137 -177h-197z" />
<glyph unicode="&#x2000;" horiz-adv-x="960" />
<glyph unicode="&#x2001;" horiz-adv-x="1921" />
<glyph unicode="&#x2002;" horiz-adv-x="960" />
<glyph unicode="&#x2003;" horiz-adv-x="1921" />
<glyph unicode="&#x2004;" horiz-adv-x="640" />
<glyph unicode="&#x2005;" horiz-adv-x="480" />
<glyph unicode="&#x2006;" horiz-adv-x="320" />
<glyph unicode="&#x2007;" horiz-adv-x="320" />
<glyph unicode="&#x2008;" horiz-adv-x="240" />
<glyph unicode="&#x2009;" horiz-adv-x="384" />
<glyph unicode="&#x200a;" horiz-adv-x="106" />
<glyph unicode="&#x2010;" horiz-adv-x="833" d="M109 463v209h616v-209h-616z" />
<glyph unicode="&#x2011;" horiz-adv-x="833" d="M109 463v209h616v-209h-616z" />
<glyph unicode="&#x2012;" horiz-adv-x="833" d="M109 463v209h616v-209h-616z" />
<glyph unicode="&#x2013;" d="M0 469v197h1024v-197h-1024z" />
<glyph unicode="&#x2014;" horiz-adv-x="2048" d="M0 469v197h2048v-197h-2048z" />
<glyph unicode="&#x2018;" horiz-adv-x="491" d="M141 1098v209l209 151v-360h-209z" />
<glyph unicode="&#x2019;" horiz-adv-x="491" d="M141 1098v360h209v-209z" />
<glyph unicode="&#x201a;" horiz-adv-x="491" d="M141 -152v361h209v-209z" />
<glyph unicode="&#x201c;" horiz-adv-x="681" d="M78 1098v209l209 151v-360h-209zM395 1098v209l209 151v-360h-209z" />
<glyph unicode="&#x201d;" horiz-adv-x="681" d="M78 1098v360h209v-209zM395 1098v360h209v-209z" />
<glyph unicode="&#x201e;" horiz-adv-x="681" d="M78 -152v361h209v-209zM395 -152v361h209v-209z" />
<glyph unicode="&#x2022;" d="M147 729q0 152 107.5 258.5t257.5 106.5q152 0 258.5 -106.5t106.5 -258.5q0 -150 -106.5 -257t-258.5 -107q-150 0 -257.5 107.5t-107.5 256.5z" />
<glyph unicode="&#x2026;" horiz-adv-x="2048" d="M238 0v209h208v-209h-208zM920 0v209h208v-209h-208zM1602 0v209h208v-209h-208z" />
<glyph unicode="&#x202f;" horiz-adv-x="384" />
<glyph unicode="&#x2039;" horiz-adv-x="606" d="M94 567l418 414v-209l-209 -205l209 -205v-208z" />
<glyph unicode="&#x203a;" horiz-adv-x="606" d="M94 154v208l209 205l-209 205v209l418 -414z" />
<glyph unicode="&#x205f;" horiz-adv-x="480" />
<glyph unicode="&#x2122;" horiz-adv-x="2027" d="M82 1311v147h668v-147h-254v-697h-160v697h-254zM901 614v844h250l235 -622l236 622h250v-844h-160v684h-4l-270 -684h-105l-268 684h-4v-684h-160z" />
<glyph unicode="&#xe000;" horiz-adv-x="1034" d="M0 0v1034h1034v-1034h-1034z" />
</font>
</defs>
</svg>
